<svg width="24" height="24" viewBox="0 0 24 24" fill="none" xmlns="http://www.w3.org/2000/svg">
<path d="M5.625 11.9999C5.625 10.8109 5.95261 9.69696 6.52177 8.7432V4.69751H2.47608C0.870375 6.78288 0 9.3244 0 11.9999C0 14.6755 0.870375 17.217 2.47608 19.3024H6.52177V15.2567C5.95261 14.3029 5.625 13.189 5.625 11.9999Z" fill="#ECECEC"/>
<path d="M12 18.375L9.1875 21.1875L12 24C14.6756 24 17.217 23.1296 19.3024 21.5239V17.4825H15.261C14.2989 18.0538 13.1804 18.375 12 18.375Z" fill="#ECECEC"/>
<path d="M6.52176 15.2567L2.47607 19.3024C2.79398 19.7153 3.14015 20.1107 3.51473 20.4853C5.78123 22.7518 8.79468 24 12 24V18.375C9.67387 18.375 7.63514 17.1225 6.52176 15.2567Z" fill="#ECECEC"/>
<path d="M24 12.0001C24 11.27 23.9339 10.5386 23.8035 9.82615L23.698 9.24963H12V14.8746H17.6931C17.1402 15.9744 16.2902 16.8716 15.261 17.4827L19.3024 21.524C19.7153 21.2061 20.1106 20.86 20.4853 20.4854C22.7518 18.2188 24 15.2054 24 12.0001Z" fill="#ECECEC"/>
<path d="M16.5078 7.49217L17.005 7.98933L20.9825 4.01189L20.4853 3.51473C18.2188 1.24823 15.2054 0 12 0L9.1875 2.8125L12 5.625C13.7028 5.625 15.3037 6.28809 16.5078 7.49217Z" fill="#ECECEC"/>
<path d="M12 5.625V0C8.79473 0 5.78128 1.24823 3.51473 3.51469C3.14015 3.88927 2.79398 4.28466 2.47607 4.69758L6.52176 8.74327C7.63518 6.8775 9.67392 5.625 12 5.625Z" fill="#ECECEC"/>
</svg>
