<svg width="24" height="24" viewBox="0 0 24 24" fill="none" xmlns="http://www.w3.org/2000/svg">
<path d="M5.625 11.9999C5.625 10.8109 5.95261 9.69696 6.52177 8.7432V4.69751H2.47608C0.870375 6.78288 0 9.3244 0 11.9999C0 14.6755 0.870375 17.217 2.47608 19.3024H6.52177V15.2567C5.95261 14.3029 5.625 13.189 5.625 11.9999Z" fill="#FBBD00"/>
<path d="M12 18.3749L9.1875 21.1874L12 23.9999C14.6756 23.9999 17.217 23.1295 19.3024 21.5238V17.4824H15.261C14.2989 18.0536 13.1804 18.3749 12 18.3749Z" fill="#0F9D58"/>
<path d="M6.52176 15.2568L2.47607 19.3025C2.79398 19.7154 3.14015 20.1108 3.51473 20.4854C5.78123 22.7519 8.79468 24.0001 12 24.0001V18.3751C9.67387 18.3751 7.63514 17.1226 6.52176 15.2568Z" fill="#31AA52"/>
<path d="M24 12.0002C24 11.2701 23.9339 10.5387 23.8035 9.82627L23.698 9.24976H12V14.8748H17.6931C17.1402 15.9745 16.2902 16.8717 15.261 17.4828L19.3024 21.5242C19.7153 21.2063 20.1106 20.8601 20.4853 20.4855C22.7518 18.219 24 15.2055 24 12.0002Z" fill="#3C79E6"/>
<path d="M16.5078 7.49217L17.005 7.98933L20.9825 4.01189L20.4853 3.51473C18.2188 1.24823 15.2054 0 12 0L9.1875 2.8125L12 5.625C13.7028 5.625 15.3037 6.28809 16.5078 7.49217Z" fill="#CF2D48"/>
<path d="M12 5.625V0C8.79473 0 5.78128 1.24823 3.51473 3.51469C3.14015 3.88927 2.79398 4.28466 2.47607 4.69758L6.52176 8.74327C7.63518 6.8775 9.67392 5.625 12 5.625Z" fill="#EB4132"/>
</svg>
