<svg width="30" height="24" viewBox="0 0 30 24" fill="none" xmlns="http://www.w3.org/2000/svg">
    <symbol id="share" viewBox="0 0 30 24">
        <path fill-rule="evenodd" clip-rule="evenodd" d="M17.4807 0.0700847C17.8313 -0.0726625 18.2347 0.00670969 18.5026 0.271157L29.7262 11.3481C30.0913 11.7084 30.0913 12.2916 29.7262 12.6519L18.5026 23.7288C18.2347 23.9933 17.8313 24.0727 17.4807 23.9299C17.1301 23.7872 16.9014 23.4504 16.9014 23.0769V17.6203C15.185 17.418 12.6947 17.3788 10.0787 17.841C7.03322 18.3792 3.90741 19.58 1.60816 21.8975C1.32528 22.1826 0.888473 22.2568 0.524961 22.0814C0.16145 21.9059 -0.0466497 21.5206 0.00891252 21.1258C0.360658 18.6263 1.66781 14.9302 4.45932 11.8424C7.13424 8.88352 11.1536 6.50777 16.9014 6.27409V0.923102C16.9014 0.549556 17.1301 0.212832 17.4807 0.0700847ZM18.7764 3.15531V7.17829C18.7764 7.68809 18.3567 8.10137 17.8389 8.10137C12.1537 8.10137 8.3433 10.3228 5.85985 13.0698C4.21552 14.8887 3.14403 16.9499 2.51381 18.7715C4.76392 17.2827 7.32931 16.4512 9.74751 16.0239C13.0217 15.4454 16.1163 15.591 17.999 15.9122C18.4483 15.9888 18.7764 16.3727 18.7764 16.8217V20.8447L27.7382 12L18.7764 3.15531Z" />
    </symbol>
</svg>
