<svg width="24" height="25" viewBox="0 0 24 25" fill="none" xmlns="http://www.w3.org/2000/svg">
    <symbol id="comment" viewBox="0 0 24 25">
        <path fill-rule="evenodd" clip-rule="evenodd" d="M1.71426 12.0219C1.71426 6.39465 6.31704 1.81929 11.9998 1.81929C17.6826 1.81929 22.2854 6.39465 22.2854 12.0219C22.2854 14.1085 21.6511 16.0498 20.5711 17.6662C20.4168 17.8971 20.3825 18.1793 20.4768 18.4359L21.9168 22.3441H11.9655C6.2913 22.3441 1.71426 17.6747 1.71426 12.0219ZM11.9998 0.108887C5.3742 0.108887 0 5.43682 0 12.0219C0 18.5983 5.32274 24.0545 11.9655 24.0545H23.1425C23.4253 24.0545 23.6824 23.9176 23.8453 23.6867C24.0081 23.4558 24.0424 23.1651 23.9481 22.9085L22.2339 18.2476C23.3567 16.4346 23.9996 14.3052 23.9996 12.0219C23.9996 5.43682 18.6254 0.108887 11.9998 0.108887Z"/>
    </symbol>
</svg>
