<svg width="24" height="24" viewBox="0 0 24 24" fill="none" xmlns="http://www.w3.org/2000/svg">
    <symbol id="add" viewBox="0 0 24 24" >
        <path stroke-width="0" d="M12 5C12.483 5 12.875 5.392 12.875 5.875V11.125H18.125C18.608 11.125 19 11.517 19 12C19 12.483 18.608 12.875 18.125 12.875H12.875V18.125C12.875 18.6062 12.483 19 12 19C11.517 19 11.125 18.6062 11.125 18.125V12.875H5.875C5.392 12.875 5 12.483 5 12C5 11.517 5.392 11.125 5.875 11.125H11.125V5.875C11.125 5.392 11.517 5 12 5Z"/>
        <path stroke-width="0" fill-rule="evenodd" clip-rule="evenodd" d="M12 0C5.37257 0 0 5.37257 0 12C0 18.6257 5.37257 24 12 24C18.6274 24 24 18.6257 24 12C24 5.37257 18.6274 0 12 0ZM1.71429 12C1.71429 6.31971 6.31971 1.71429 12 1.71429C17.6803 1.71429 22.2857 6.31971 22.2857 12C22.2857 17.6829 17.6803 22.2857 12 22.2857C6.31971 22.2857 1.71429 17.6829 1.71429 12Z"/>
    </symbol>
</svg>
