<svg width="16" height="16" viewBox="0 0 16 16" fill="none" xmlns="http://www.w3.org/2000/svg">
    <symbol id="preview" viewBox="0 0 16 16" >
        <path stroke-width="0" d="M4.66699 3C4.66699 3.552 4.21899 4 3.66699 4C3.11499 4 2.66699 3.552 2.66699 3C2.66699 2.448 3.11499 2 3.66699 2C4.21899 2 4.66699 2.448 4.66699 3Z"/>
        <path stroke-width="0" fill-rule="evenodd" clip-rule="evenodd" d="M13.1429 16H2.85714C1.27943 16 0 14.7206 0 13.1429V2.85714C0 1.27943 1.27943 0 2.85714 0H13.1429C14.7206 0 16 1.27943 16 2.85714V13.1429C16 14.7206 14.7206 16 13.1429 16ZM2.85714 14.8571H13.1429C14.0897 14.8571 14.8571 14.0897 14.8571 13.1429V6.28571H1.14286V13.1429C1.14286 14.0897 1.91029 14.8571 2.85714 14.8571ZM1.14286 5.14286V2.85714C1.14286 1.91029 1.91029 1.14286 2.85714 1.14286H13.1429C14.0897 1.14286 14.8571 1.91029 14.8571 2.85714V5.14286H1.14286Z"/>
        <rect stroke-width="0" x="3" y="8" width="7" height="1" rx="0.5"/>
        <rect stroke-width="0" x="3" y="10" width="10" height="1" rx="0.5"/>
        <rect stroke-width="0" x="3" y="12" width="10" height="1" rx="0.5"/>
    </symbol>
</svg>
