<svg width="16" height="16" viewBox="0 0 16 16" fill="none" xmlns="http://www.w3.org/2000/svg">
    <symbol id="trash" viewBox="0 0 16 16" >
        <path stroke-width="0" fill-rule="evenodd" clip-rule="evenodd" d="M4.57143 1.71429C4.57143 0.767429 5.33886 0 6.28571 0H9.71429C10.6611 0 11.4286 0.767429 11.4286 1.71429V2.28571H15.4286C15.744 2.28571 16 2.54171 16 2.85714C16 3.17257 15.744 3.42857 15.4286 3.42857H14.2857V13.1429C14.2857 14.7206 13.0063 16 11.4286 16H4.57143C2.99371 16 1.71429 14.7206 1.71429 13.1429V3.42857H0.571429C0.256 3.42857 0 3.17257 0 2.85714C0 2.54171 0.256 2.28571 0.571429 2.28571H4.57143V1.71429ZM5.71429 2.28571H10.2857V1.71429C10.2857 1.39886 10.0297 1.14286 9.71429 1.14286H6.28571C5.97029 1.14286 5.71429 1.39886 5.71429 1.71429V2.28571ZM2.85714 3.42857V13.1429C2.85714 14.0897 3.62457 14.8571 4.57143 14.8571H11.4286C12.3754 14.8571 13.1429 14.0897 13.1429 13.1429V3.42857H2.85714ZM8 5.14286C8.31543 5.14286 8.57143 5.39886 8.57143 5.71429V12.5714C8.57143 12.8869 8.31543 13.1429 8 13.1429C7.68457 13.1429 7.42857 12.8869 7.42857 12.5714V5.71429C7.42857 5.39886 7.68457 5.14286 8 5.14286Z"/>
    </symbol>
</svg>
