<svg width="24" height="24" viewBox="0 0 24 24" fill="none" xmlns="http://www.w3.org/2000/svg">
    <symbol id="login" viewBox="0 0 24 24" >
        <path stroke-width="0" d="M6 23.1429C6 22.6714 6.38571 22.2857 6.85714 22.2857H19.7143C21.1371 22.2857 22.2857 21.1371 22.2857 19.7143V4.28571C22.2857 2.86286 21.1371 1.71429 19.7143 1.71429H6.85714C6.38571 1.71429 6 1.32857 6 0.857143C6 0.385714 6.38571 0 6.85714 0H19.7143C22.08 0 24 1.92 24 4.28571V19.7143C24 22.08 22.08 24 19.7143 24H6.85714C6.38571 24 6 23.6143 6 23.1429Z"/>
        <path stroke-width="0" d="M15.9343 12.8571L12.2486 16.5342C11.9143 16.8685 11.9143 17.417 12.2486 17.7513C12.5829 18.0856 13.1314 18.0856 13.4657 17.7513L18.6085 12.6084C18.9428 12.2742 18.9428 11.7257 18.6085 11.3914L13.4657 6.24852C13.1314 5.91423 12.5829 5.91423 12.2486 6.24852C11.9143 6.5828 11.9143 7.13131 12.2486 7.46559L15.9343 11.1428H0.857143C0.385714 11.1428 0 11.5285 0 11.9999C0 12.4713 0.385714 12.8571 0.857143 12.8571H15.9343Z"/>
    </symbol>
</svg>
