<svg width="16" height="16" viewBox="0 0 16 16" fill="none" xmlns="http://www.w3.org/2000/svg">
    <symbol id="error" viewBox="0 0 16 16" >
        <path fill-rule="evenodd" clip-rule="evenodd" d="M8 1.14286C4.21314 1.14286 1.14286 4.21314 1.14286 8C1.14286 11.7869 4.21314 14.8571 8 14.8571C11.7869 14.8571 14.8571 11.7869 14.8571 8C14.8571 4.21314 11.7869 1.14286 8 1.14286ZM0 8C0 3.58171 3.58171 0 8 0C12.4183 0 16 3.58171 16 8C16 12.4183 12.4183 16 8 16C3.58171 16 0 12.4183 0 8Z"/>
        <path fill-rule="evenodd" clip-rule="evenodd" d="M8.00016 6.66699C8.36816 6.66699 8.66683 6.90593 8.66683 7.20033V11.467C8.66683 11.7614 8.36816 12.0003 8.00016 12.0003C7.63216 12.0003 7.3335 11.7614 7.3335 11.467V7.20033C7.3335 6.90593 7.63216 6.66699 8.00016 6.66699Z"/>
        <path fill-rule="evenodd" clip-rule="evenodd" d="M8.00016 3.33301C8.36816 3.33301 8.66683 3.55701 8.66683 3.83301V4.83301C8.66683 5.10901 8.36816 5.33301 8.00016 5.33301C7.63216 5.33301 7.3335 5.10901 7.3335 4.83301V3.83301C7.3335 3.55701 7.63216 3.33301 8.00016 3.33301Z"/>
    </symbol>
</svg>
