<svg width="24" height="24" viewBox="0 0 24 24" fill="none" xmlns="http://www.w3.org/2000/svg">
<g clip-path="url(#clip0)">
<path d="M22.5 1.63305C24.386 3.59205 24 5.67305 24 11.9951C24 17.2451 24.916 22.5081 20.122 23.7471C18.625 24.1321 5.36105 24.1321 3.86604 23.7451C1.87004 23.2301 0.246046 21.6111 0.0240459 18.7881C-0.00695419 18.3941 -0.00695419 5.60305 0.0250454 5.20105C0.261045 2.19405 2.11205 0.461047 4.55105 0.110047C5.11005 0.0290465 5.22205 0.00504643 8.09004 4.64283e-05C18.263 0.00504643 20.493 -0.447954 22.5 1.63305Z" fill="#ECECEC"/>
<path d="M12.0019 3.13905C15.6329 3.13905 19.0809 2.81605 20.3979 6.19605C20.9419 7.59205 20.8629 9.40505 20.8629 12.001C20.8629 14.279 20.9359 16.42 20.3979 17.805C19.0839 21.187 15.6079 20.8631 12.0039 20.8631C8.52694 20.8631 4.94194 21.225 3.60894 17.805C3.06394 16.395 3.14394 14.609 3.14394 12.001C3.14394 8.53905 2.95294 6.30405 4.63194 4.62605C6.33194 2.92605 8.63094 3.13905 12.0059 3.13905H12.0019ZM12.7959 4.73605C5.22194 4.72405 4.25794 3.88205 4.78994 15.579C4.97894 19.7161 8.12894 19.262 12.0009 19.262C19.0609 19.262 19.2639 19.06 19.2639 11.997C19.2639 4.85205 18.7039 4.74005 12.7959 4.73405V4.73605ZM7.27194 6.20705C7.85894 6.20705 8.33494 6.68305 8.33494 7.27005C8.33494 7.85705 7.85894 8.33305 7.27194 8.33305C6.68494 8.33305 6.20894 7.85705 6.20894 7.27005C6.20894 6.68305 6.68494 6.20705 7.27194 6.20705ZM12.0019 7.45005C14.5149 7.45005 16.5519 9.48805 16.5519 12.001C16.5519 14.514 14.5149 16.551 12.0019 16.551C9.48894 16.551 7.45294 14.514 7.45294 12.001C7.45294 9.48805 9.48894 7.45005 12.0019 7.45005ZM12.0019 9.04705C8.09694 9.04705 8.09194 14.955 12.0019 14.955C15.9059 14.955 15.9119 9.04705 12.0019 9.04705Z" fill="#DBDBDB"/>
</g>
<defs>
<clipPath id="clip0">
<rect width="24" height="24" fill="white" transform="matrix(-1 0 0 1 24 0)"/>
</clipPath>
</defs>
</svg>
