<svg width="25" height="25" viewBox="0 0 25 25" fill="none" xmlns="http://www.w3.org/2000/svg">
<path d="M22.4991 1.67138C24.3851 3.63038 23.9991 5.71138 23.9991 12.0334C23.9991 17.2834 24.9151 22.5464 20.1211 23.7854C18.6241 24.1704 5.36007 24.1704 3.86507 23.7834C1.86907 23.2684 0.24507 21.6494 0.0230694 18.8264C-0.00793076 18.4324 -0.00793076 5.64138 0.0240688 5.23938C0.260069 2.23238 2.11107 0.499377 4.55007 0.148377C5.10907 0.0673765 5.22107 0.0433765 8.08907 0.0383765C18.2621 0.0433765 20.4921 -0.409624 22.4991 1.67138Z" fill="url(#paint0_linear)"/>
<path d="M12.001 3.17738C15.632 3.17738 19.08 2.85438 20.397 6.23438C20.941 7.63038 20.862 9.44338 20.862 12.0394C20.862 14.3174 20.935 16.4584 20.397 17.8434C19.083 21.2254 15.607 20.9014 12.003 20.9014C8.52596 20.9014 4.94096 21.2634 3.60796 17.8434C3.06296 16.4334 3.14296 14.6474 3.14296 12.0394C3.14296 8.57738 2.95196 6.34238 4.63096 4.66438C6.33096 2.96438 8.62996 3.17738 12.005 3.17738H12.001ZM12.795 4.77438C5.22096 4.76238 4.25696 3.92038 4.78896 15.6174C4.97796 19.7544 8.12796 19.3004 12 19.3004C19.06 19.3004 19.263 19.0984 19.263 12.0354C19.263 4.89038 18.703 4.77838 12.795 4.77238V4.77438ZM7.27096 6.24538C7.85796 6.24538 8.33396 6.72138 8.33396 7.30838C8.33396 7.89538 7.85796 8.37138 7.27096 8.37138C6.68396 8.37138 6.20796 7.89538 6.20796 7.30838C6.20796 6.72138 6.68396 6.24538 7.27096 6.24538ZM12.001 7.48838C14.514 7.48838 16.551 9.52638 16.551 12.0394C16.551 14.5524 14.514 16.5894 12.001 16.5894C9.48796 16.5894 7.45196 14.5524 7.45196 12.0394C7.45196 9.52638 9.48796 7.48838 12.001 7.48838ZM12.001 9.08538C8.09596 9.08538 8.09096 14.9934 12.001 14.9934C15.905 14.9934 15.911 9.08538 12.001 9.08538Z" fill="white"/>
<defs>
<linearGradient id="paint0_linear" x1="22.453" y1="22.5055" x2="0.147572" y2="3.20037" gradientUnits="userSpaceOnUse">
<stop stop-color="#FFDD55"/>
<stop offset="0.5" stop-color="#FF543E"/>
<stop offset="1" stop-color="#C837AB"/>
</linearGradient>
</defs>
</svg>
