<svg width="24" height="24" viewBox="0 0 24 24" fill="none" xmlns="http://www.w3.org/2000/svg">
    <symbol id="edit" viewBox="0 0 24 24" >
        <path stroke-width="0" fill-rule="evenodd" clip-rule="evenodd" d="M15.2512 1.49667C17.2423 -0.49889 20.472 -0.49889 22.4631 1.49667C24.4551 3.49137 24.4551 6.726 22.4631 8.72157L8.92629 22.2826H23.1429C23.616 22.2826 24 22.6665 24 23.1413C24 23.6153 23.616 24 23.1429 24H0.857143C0.384 24 0 23.6153 0 23.1413V17.1306C0 16.903 0.0900255 16.6841 0.251168 16.5235L15.2512 1.49667ZM6.50228 22.2826L18.0737 10.6905L13.2857 5.89397L1.71429 17.4861V22.2826H6.50228ZM14.4977 4.67981L19.2857 9.47637L21.2512 7.5074C22.5729 6.18246 22.5729 4.03492 21.2512 2.71084C19.9286 1.3859 17.7857 1.3859 16.4631 2.71084L14.4977 4.67981Z" />
    </symbol>
</svg>
