<svg width="24" height="24" viewBox="0 0 24 24" fill="none" xmlns="http://www.w3.org/2000/svg">
    <symbol id="copy_link" viewBox="0 0 24 24">
        <path stroke-width="0" d="M15.6589 2.85897C17.1673 1.34194 19.624 1.34194 21.141 2.85897C22.658 4.37601 22.658 6.82405 21.141 8.34109L18.4 11.082C18.0639 11.4182 18.0639 11.9699 18.4 12.3061C18.7362 12.6422 19.2792 12.6422 19.6153 12.3061L22.3649 9.56499C24.5456 7.37563 24.5456 3.82443 22.3649 1.63507C20.1755 -0.545673 16.6243 -0.545673 14.435 1.63507L10.9181 5.16043C10.582 5.49659 10.582 6.03965 10.9181 6.37581C11.2543 6.71197 11.7975 6.71197 12.1336 6.37581L15.6589 2.85897Z"/>
        <path stroke-width="0" d="M6.21258 12.306C6.54874 11.9698 6.54874 11.4181 6.21258 11.082C5.87641 10.7458 5.32483 10.7458 4.98867 11.082L1.63556 14.435C-0.545185 16.6243 -0.545185 20.1755 1.63556 22.3649C3.82492 24.5456 7.37633 24.5456 9.56569 22.3649L13.0909 18.8309C13.4271 18.4947 13.4271 17.9517 13.0909 17.6155C12.7548 17.2707 12.2118 17.2707 11.8757 17.6155L8.34157 21.141C6.82454 22.658 4.37671 22.658 2.85967 21.141C1.34263 19.6239 1.34263 17.1674 2.85967 15.659L6.21258 12.306Z"/>
        <path stroke-width="0" d="M16.127 9.22896C16.4632 8.8928 16.4632 8.34121 16.127 8.00505C15.7909 7.66889 15.2393 7.66889 14.9031 8.00505L8.00749 14.9007C7.67133 15.2368 7.67133 15.7884 8.00749 16.1246C8.34365 16.4607 8.89524 16.4607 9.2314 16.1246L16.127 9.22896Z"/>
    </symbol>
</svg>
