<svg width="16" height="15" viewBox="0 0 16 15" fill="none" xmlns="http://www.w3.org/2000/svg">
    <symbol id="back" viewBox="0 0 16 15">
        <path d="M0.167128 4.44642C-0.0557094 4.22142 -0.0557094 3.85569 0.167128 3.63069L3.5954 0.169181C3.81824 -0.0563938 4.18387 -0.0563938 4.40671 0.169181C4.62955 0.394179 4.62955 0.759911 4.40671 0.984909L1.94976 3.46164H10.2862C13.4402 3.46164 16 6.0445 16 9.23082C16 12.4171 13.4402 15 10.2862 15H1.14416C0.829905 15 0.572784 14.7415 0.572784 14.4231C0.572784 14.1046 0.829905 13.8462 1.14416 13.8462H10.2862C12.8117 13.8462 14.8572 11.7796 14.8572 9.23082C14.8572 6.68199 12.8117 4.61547 10.2862 4.61547H1.94976L4.40671 7.0922C4.62955 7.3172 4.62955 7.68293 4.40671 7.90793C4.18387 8.1335 3.81824 8.1335 3.5954 7.90793L0.167128 4.44642Z"/>
    </symbol>
</svg>
