<svg width="16" height="16" viewBox="0 0 16 16" fill="none" xmlns="http://www.w3.org/2000/svg">
    <symbol id="edit" viewBox="0 0 16 16" >
        <path fill-rule="evenodd" clip-rule="evenodd" d="M10.1674 0.997781C11.4949 -0.332594 13.648 -0.332594 14.9754 0.997781C16.3034 2.32758 16.3034 4.484 14.9754 5.81438L5.95086 14.8551H15.4286C15.744 14.8551 16 15.111 16 15.4276C16 15.7435 15.744 16 15.4286 16H0.571429C0.256 16 0 15.7435 0 15.4276V11.4204C0 11.2687 0.060017 11.1227 0.167446 11.0157L10.1674 0.997781ZM4.33486 14.8551L12.0491 7.12702L8.85714 3.92932L1.14286 11.6574V14.8551H4.33486ZM9.66514 3.11987L12.8571 6.31758L14.1674 5.00493C15.0486 4.12164 15.0486 2.68994 14.1674 1.80723C13.2857 0.923935 11.8571 0.923935 10.9754 1.80723L9.66514 3.11987Z"/>
    </symbol>
</svg>
