<svg width="24" height="24" viewBox="0 0 24 24" fill="none" xmlns="http://www.w3.org/2000/svg">
    <symbol id="search" viewBox="0 0 24 24">
        <path stroke-width="0" fill-rule="evenodd" clip-rule="evenodd" d="M10.7143 1.71429C5.74374 1.71429 1.71429 5.74374 1.71429 10.7143C1.71429 15.6849 5.74374 19.7144 10.7143 19.7144C13.1975 19.7144 15.4441 18.7098 17.0735 17.0829C18.7064 15.4526 19.7144 13.2018 19.7144 10.7143C19.7144 5.74374 15.6849 1.71429 10.7143 1.71429ZM0 10.7143C0 4.79659 4.79659 0 10.7143 0C16.6321 0 21.4287 4.79659 21.4287 10.7143C21.4287 13.3663 20.4644 15.7946 18.8684 17.6649L23.7481 22.5361C24.0832 22.8704 24.0841 23.4138 23.7498 23.7481C23.4155 24.0832 22.8721 24.0841 22.5378 23.7498L17.6555 18.8769C15.7861 20.4678 13.3621 21.4287 10.7143 21.4287C4.79659 21.4287 0 16.6321 0 10.7143Z"/>
    </symbol>
</svg>
