<svg width="24" height="16" viewBox="0 0 24 16" fill="none" xmlns="http://www.w3.org/2000/svg">
    <symbol id="view" viewBox="0 0 24 16">
        <path d="M23.944 7.78224C23.9359 7.76144 23.9271 7.74097 23.9174 7.72083C22.8531 5.51544 21.1968 3.64994 19.1276 2.32595C17.0016 0.96556 14.5369 0.246582 12.0001 0.246582C9.46337 0.246582 6.99856 0.965671 4.87254 2.32617C2.81096 3.6453 1.15925 5.50216 0.0945228 7.69693C-0.024803 7.92498 -0.0336748 8.20071 0.0823241 8.44114C1.1465 10.6469 2.80286 12.5127 4.87221 13.8369C6.99834 15.1975 9.46315 15.9166 12.0001 15.9166C14.537 15.9166 17.0018 15.1975 19.1279 13.837C21.1972 12.5129 22.8535 10.6472 23.9178 8.44169C24.0173 8.23512 24.0267 7.99601 23.944 7.78224ZM12.0001 14.2568C7.72139 14.2568 3.74715 11.8459 1.76298 8.08143C3.74715 4.31692 7.72139 1.90616 12.0001 1.90616C16.2788 1.90616 20.2531 4.31714 22.2373 8.08154C20.253 11.8457 16.2787 14.2568 12.0001 14.2568Z"/>
        <path d="M12 4.43945C9.98723 4.43945 8.34961 6.07336 8.34961 8.08159C8.34961 10.0898 9.98723 11.7237 12 11.7237C14.0128 11.7237 15.6504 10.0898 15.6504 8.08159C15.6504 6.07336 14.0128 4.43945 12 4.43945ZM12 10.064C10.9045 10.064 10.0131 9.17466 10.0131 8.08159C10.0131 6.98852 10.9045 6.09914 12 6.09914C13.0956 6.09914 13.987 6.98852 13.987 8.08159C13.987 9.17466 13.0956 10.064 12 10.064Z"/>
    </symbol>
</svg>
