<svg width="24" height="24" viewBox="0 0 24 24" fill="none" xmlns="http://www.w3.org/2000/svg">
    <symbol id="settings" viewBox="0 0 24 24" >
        <path stroke-width="0" fill-rule="evenodd" clip-rule="evenodd" d="M8.57828 3.21172C8.68971 1.41944 10.1794 0 12 0C13.8206 0 15.3103 1.41944 15.4217 3.21172C15.5477 3.26058 15.672 3.312 15.7946 3.366C17.1411 2.178 19.1974 2.22687 20.4857 3.51515C21.7732 4.80258 21.822 6.85886 20.634 8.20543C20.688 8.328 20.7394 8.45228 20.7883 8.57828C22.5806 8.68971 24 10.1794 24 12C24 13.8206 22.5806 15.3103 20.7883 15.4217C20.7394 15.5477 20.688 15.672 20.634 15.7946C21.822 17.1411 21.7731 19.1974 20.4848 20.4848C19.1974 21.7731 17.1411 21.822 15.7946 20.634C15.672 20.688 15.5477 20.7394 15.4217 20.7883C15.3103 22.5806 13.8206 24 12 24C10.1794 24 8.68971 22.5806 8.57828 20.7883C8.45228 20.7394 8.328 20.688 8.20543 20.634C6.85886 21.822 4.80258 21.7731 3.51515 20.4848C2.22687 19.1974 2.178 17.1411 3.366 15.7946C3.312 15.672 3.26058 15.5477 3.21172 15.4217C1.41944 15.3103 0 13.8206 0 12C0 10.1794 1.41944 8.68971 3.21172 8.57828C3.26058 8.45228 3.312 8.328 3.366 8.20543C2.178 6.85886 2.22687 4.80258 3.51515 3.51515C4.80258 2.22687 6.85886 2.178 8.20543 3.366C8.328 3.312 8.45228 3.26058 8.57828 3.21172ZM4.72716 7.15116C5.16258 7.58744 5.2423 8.23197 5.00145 8.74883C4.91059 8.94597 4.82743 9.14655 4.75201 9.35141C4.55658 9.88712 4.04486 10.2857 3.42857 10.2857C2.48143 10.2857 1.71429 11.0529 1.71429 12C1.71429 12.9471 2.48143 13.7143 3.42857 13.7143C4.04486 13.7143 4.55658 14.1129 4.75201 14.6486C4.82743 14.8535 4.91059 15.054 5.00145 15.2512C5.2423 15.768 5.16258 16.4126 4.72716 16.8488C4.05773 17.5183 4.05773 18.6034 4.72716 19.2728C5.39658 19.9423 6.48173 19.9423 7.15116 19.2728C7.58744 18.8374 8.23197 18.7577 8.74883 18.9986C8.94597 19.0894 9.14655 19.1726 9.35141 19.248C9.88712 19.4434 10.2857 19.9551 10.2857 20.5714C10.2857 21.5186 11.0529 22.2857 12 22.2857C12.9471 22.2857 13.7143 21.5186 13.7143 20.5714C13.7143 19.9551 14.1129 19.4434 14.6486 19.248C14.8535 19.1726 15.0549 19.0894 15.2512 18.9986C15.768 18.7577 16.4126 18.8374 16.8488 19.2728C17.5183 19.9423 18.6034 19.9423 19.2728 19.2728C19.9423 18.6034 19.9423 17.5183 19.2728 16.8488C18.8374 16.4126 18.7577 15.768 18.9986 15.2512C19.0894 15.054 19.1726 14.8535 19.248 14.6486C19.4434 14.1129 19.9551 13.7143 20.5714 13.7143C21.5186 13.7143 22.2857 12.9471 22.2857 12C22.2857 11.0529 21.5186 10.2857 20.5714 10.2857C19.9551 10.2857 19.4434 9.88712 19.248 9.35141C19.1726 9.14655 19.0894 8.94597 18.9986 8.74883C18.7577 8.23197 18.8374 7.58744 19.2728 7.15116C19.9423 6.48173 19.9423 5.39658 19.2728 4.72716C18.6034 4.05773 17.5183 4.05773 16.8488 4.72716C16.4126 5.16258 15.768 5.2423 15.2512 5.00145C15.0549 4.91059 14.8535 4.82743 14.6486 4.75201C14.1129 4.55658 13.7143 4.04486 13.7143 3.42857C13.7143 2.48143 12.9471 1.71429 12 1.71429C11.0529 1.71429 10.2857 2.48143 10.2857 3.42857C10.2857 4.04486 9.88712 4.55658 9.35141 4.75201C9.14655 4.82743 8.94512 4.91059 8.74883 5.00145C8.23197 5.2423 7.58744 5.16258 7.15116 4.72716C6.48173 4.05773 5.39658 4.05773 4.72716 4.72716C4.05773 5.39658 4.05773 6.48173 4.72716 7.15116Z"/>
        <path stroke-width="0" fill-rule="evenodd" clip-rule="evenodd" d="M11.9998 8.57143C10.1064 8.57143 8.57122 10.1066 8.57122 12C8.57122 13.8934 10.1064 15.4286 11.9998 15.4286C13.8932 15.4286 15.4284 13.8934 15.4284 12C15.4284 10.1066 13.8932 8.57143 11.9998 8.57143ZM6.85693 12C6.85693 9.15943 9.15922 6.85715 11.9998 6.85715C14.8404 6.85715 17.1426 9.15943 17.1426 12C17.1426 14.8406 14.8404 17.1429 11.9998 17.1429C9.15922 17.1429 6.85693 14.8406 6.85693 12Z"/>
    </symbol>
</svg>
