<svg width="25" height="24" viewBox="0 0 25 24" fill="none" xmlns="http://www.w3.org/2000/svg">
    <symbol id="logout" viewBox="0 0 25 24" >
        <path stroke-width="0" d="M6.00146 23.1429C6.00146 22.6714 6.38718 22.2857 6.85861 22.2857H19.7158C21.1386 22.2857 22.2872 21.1371 22.2872 19.7143V4.28571C22.2872 2.86286 21.1386 1.71429 19.7158 1.71429H6.85861C6.38718 1.71429 6.00146 1.32857 6.00146 0.857143C6.00146 0.385714 6.38718 0 6.85861 0H19.7158C22.0815 0 24.0015 1.92 24.0015 4.28571V19.7143C24.0015 22.08 22.0815 24 19.7158 24H6.85861C6.38718 24 6.00146 23.6143 6.00146 23.1429Z"/>
        <path stroke-width="0" d="M2.925 12.8571L6.61065 16.5343C6.94493 16.8686 6.94493 17.4171 6.61065 17.7514C6.27636 18.0857 5.72786 18.0857 5.39357 17.7514L0.250714 12.6085C-0.0835714 12.2743 -0.0835714 11.7258 0.250714 11.3915L5.39357 6.24861C5.72786 5.91432 6.27636 5.91432 6.61065 6.24861C6.94493 6.58289 6.94493 7.1314 6.61065 7.46568L2.925 11.1429H18.0021C18.4735 11.1429 18.8593 11.5286 18.8593 12C18.8593 12.4714 18.4735 12.8571 18.0021 12.8571H2.925Z"/>
    </symbol>
</svg>
