<svg width="16" height="11" viewBox="0 0 16 11" fill="none" xmlns="http://www.w3.org/2000/svg">
    <symbol id="hide" viewBox="0 0 16 11" >
        <path stroke-width="0" fill-rule="evenodd" clip-rule="evenodd" d="M2.38223 2.22317C3.78075 1.06759 5.76593 0 8 0C10.2341 0 12.2192 1.06759 13.6178 2.22317C14.323 2.80444 14.9038 3.42275 15.3067 3.97217C15.5082 4.24601 15.674 4.51116 15.7925 4.75374C15.9051 4.9801 16 5.24526 16 5.5C16 5.75474 15.9051 6.02104 15.7925 6.24683C15.674 6.48999 15.5082 6.75632 15.3067 7.02843C14.9038 7.57843 14.323 8.19788 13.6178 8.77683C12.2192 9.93472 10.2341 11 8 11C5.76593 11 3.78075 9.93472 2.38223 8.77683C1.67705 8.19788 1.09625 7.57843 0.693287 7.02843C0.491806 6.75632 0.325984 6.48999 0.207465 6.24683C0.0948727 6.02104 0 5.75474 0 5.5C0 5.24526 0.0948727 4.9801 0.207465 4.75374C0.325984 4.51116 0.491806 4.24601 0.693287 3.97217C1.09625 3.42275 1.67705 2.80444 2.38223 2.22317ZM1.18519 5.5C1.18519 5.51158 1.20291 5.59263 1.27995 5.74894C1.35698 5.91105 1.4815 6.11946 1.65336 6.35104C2.00299 6.81998 2.5067 7.37 3.1467 7.89106C4.4267 8.95053 6.14518 9.8421 8 9.8421C9.85481 9.8421 11.5733 8.95053 12.8533 7.89106C13.4933 7.37 13.997 6.81998 14.3466 6.35104C14.5185 6.11946 14.643 5.91105 14.7201 5.74894C14.7971 5.59263 14.8148 5.51158 14.8148 5.5C14.8148 5.48842 14.7971 5.40737 14.7201 5.25106C14.643 5.08779 14.5185 4.88286 14.3466 4.64896C13.997 4.18175 13.4933 3.6323 12.8533 3.10778C12.4385 2.7662 11.9822 2.442 11.4844 2.1589C11.7214 2.64521 11.8519 3.18942 11.8519 3.76316C11.8519 5.84158 10.1274 7.52632 8 7.52632C5.87259 7.52632 4.14815 5.84158 4.14815 3.76316C4.14815 3.18942 4.27859 2.64521 4.51562 2.1589C4.01785 2.442 3.56152 2.7662 3.1467 3.10778C2.5067 3.6323 2.00299 4.18175 1.65336 4.64896C1.4815 4.88286 1.35698 5.08779 1.27995 5.25106C1.20291 5.40737 1.18519 5.48842 1.18519 5.5ZM5.33333 3.76316C5.33333 2.32447 6.52444 1.15789 8 1.15789C9.47556 1.15789 10.6667 2.32447 10.6667 3.76316C10.6667 5.20184 9.47556 6.36842 8 6.36842C6.52444 6.36842 5.33333 5.20184 5.33333 3.76316Z"/>
    </symbol>
</svg>
