<svg width="16" height="16" viewBox="0 0 16 16" fill="none" xmlns="http://www.w3.org/2000/svg">
    <symbol id="photo" viewBox="0 0 16 16">
        <path fill-rule="evenodd" clip-rule="evenodd" d="M8.00035 5.71423C6.10892 5.71423 4.57178 7.24909 4.57178 9.14281C4.57178 11.0365 6.10892 12.5714 8.00035 12.5714C9.89178 12.5714 11.4289 11.0365 11.4289 9.14281C11.4289 7.24909 9.89178 5.71423 8.00035 5.71423ZM5.71463 9.14281C5.71463 7.88052 6.73749 6.85709 8.00035 6.85709C9.26321 6.85709 10.2861 7.88052 10.2861 9.14281C10.2861 10.4051 9.26321 11.4285 8.00035 11.4285C6.73749 11.4285 5.71463 10.4051 5.71463 9.14281Z"/>
        <path fill-rule="evenodd" clip-rule="evenodd" d="M16 13.1429V6.11886C16 4.63315 14.7943 3.42857 13.3086 3.42857C12.7257 3.42857 12.1886 3.09714 11.9258 2.57314L11.4286 1.57942C10.9429 0.611416 9.9543 0 8.8743 0H7.1257C6.0457 0 5.05714 0.611416 4.57143 1.57942L4.07422 2.57314C3.81136 3.09714 3.27426 3.42857 2.69141 3.42857C1.20569 3.42857 0 4.63315 0 6.11886V13.1429C0 14.7206 1.28 16 2.85714 16H13.1429C14.72 16 16 14.7206 16 13.1429ZM14.8571 6.11886V13.1429C14.8571 14.0897 14.0914 14.8571 13.1429 14.8571H2.85714C1.90857 14.8571 1.14286 14.0897 1.14286 13.1429V6.11886C1.14286 5.264 1.83426 4.57143 2.69141 4.57143C3.70855 4.57143 4.63996 3.99541 5.0971 3.08398L5.59431 2.0903C5.88574 1.50973 6.47998 1.14286 7.1257 1.14286H8.8743C9.52002 1.14286 10.1143 1.50973 10.4057 2.0903L10.9029 3.08398C11.36 3.99541 12.2915 4.57143 13.3086 4.57143C14.1657 4.57143 14.8571 5.26458 14.8571 6.11886Z"/>
    </symbol>
</svg>
