<svg width="17" height="16" viewBox="0 0 17 16" fill="none" xmlns="http://www.w3.org/2000/svg">
    <symbol id="edit" viewBox="0 0 17 16" >
        <path stroke-width="0" d="M14.1641 0.644066C13.3038 -0.214689 11.9107 -0.214689 11.0505 0.644066L10.271 1.42775L1.97429 9.72009L1.95666 9.73786C1.95239 9.74213 1.95239 9.74668 1.94784 9.74668C1.93903 9.7599 1.9258 9.77299 1.91712 9.78621C1.91712 9.79062 1.91258 9.79062 1.91258 9.79503C1.90376 9.80825 1.89949 9.81707 1.89054 9.83029C1.88627 9.8347 1.88627 9.83897 1.88186 9.84352C1.87745 9.85674 1.87304 9.86556 1.8685 9.87878C1.8685 9.88305 1.86423 9.88305 1.86423 9.8876L0.023426 15.4231C-0.0305734 15.5807 0.0104772 15.7552 0.129083 15.8722C0.212424 15.9544 0.324831 16.0004 0.441783 16C0.489584 15.9992 0.536971 15.9917 0.582705 15.978L6.11392 14.1327C6.11819 14.1327 6.11819 14.1327 6.12274 14.1285C6.13665 14.1243 6.15001 14.1184 6.16227 14.1107C6.16572 14.1103 6.16875 14.1088 6.17123 14.1064C6.18431 14.0976 6.20195 14.0887 6.21517 14.0799C6.22826 14.0712 6.24162 14.0579 6.25484 14.0491C6.25925 14.0446 6.26352 14.0446 6.26352 14.0403C6.26807 14.0359 6.27688 14.0316 6.28129 14.0227L15.3575 4.94652C16.2162 4.08625 16.2162 2.69315 15.3575 1.83302L14.1641 0.644066ZM5.973 13.0978L2.90798 10.0329L10.5793 2.36158L13.6444 5.42645L5.973 13.0978ZM2.47626 10.8476L5.15392 13.5251L1.13317 14.8638L2.47626 10.8476ZM14.7366 4.32994L14.2698 4.80119L11.2046 1.73604L11.676 1.26492C12.1916 0.749723 13.0274 0.749723 13.5431 1.26492L14.7409 2.46269C15.2526 2.98064 15.2507 3.81446 14.7366 4.32994Z"/>
    </symbol>
</svg>
