<svg width="32" height="32" viewBox="0 0 32 32" fill="none" xmlns="http://www.w3.org/2000/svg">
<path fill-rule="evenodd" clip-rule="evenodd" d="M5.71429 2.28571C3.82057 2.28571 2.28571 3.82057 2.28571 5.71429V18.9554L7.19203 14.0492C7.63775 13.6023 8.36225 13.6023 8.80797 14.0492L17.7143 22.9554L23.192 17.4777C23.6377 17.0309 24.3623 17.0309 24.808 17.4777L29.7143 22.384V5.71429C29.7143 3.82057 28.1794 2.28571 26.2857 2.28571H5.71429ZM32 5.71429C32 2.55886 29.4411 0 26.2857 0H5.71429C2.55886 0 0 2.55886 0 5.71429V26.2857C0 29.4411 2.55886 32 5.71429 32H26.2857C29.4411 32 32 29.4411 32 26.2857V5.71429ZM29.7143 25.616L24 19.9017L19.3303 24.5714L24.4731 29.7143H26.2857C28.1794 29.7143 29.7143 28.1794 29.7143 26.2857V25.616ZM21.2411 29.7143L8 16.4731L2.28571 22.1874V26.2857C2.28571 28.1794 3.82057 29.7143 5.71429 29.7143H21.2411ZM22.8571 6.85714C21.5943 6.85714 20.5714 7.88 20.5714 9.14286C20.5714 10.4057 21.5943 11.4286 22.8571 11.4286C24.12 11.4286 25.1429 10.4057 25.1429 9.14286C25.1429 7.88 24.12 6.85714 22.8571 6.85714ZM18.2857 9.14286C18.2857 6.61829 20.3326 4.57143 22.8571 4.57143C25.3817 4.57143 27.4286 6.61829 27.4286 9.14286C27.4286 11.6674 25.3817 13.7143 22.8571 13.7143C20.3326 13.7143 18.2857 11.6674 18.2857 9.14286Z" fill="#A9B9C1"/>
</svg>
