<svg width="24" height="24" viewBox="0 0 24 24" fill="none" xmlns="http://www.w3.org/2000/svg">
<path d="M21 0H3C1.345 0 0 1.345 0 3V21C0 22.654 1.345 24 3 24H21C22.654 24 24 22.654 24 21V3C24 1.345 22.654 0 21 0Z" fill="#ECECEC"/>
<path d="M20.6067 15.9194C20.5596 15.8405 20.2682 15.2073 18.866 13.9059C17.3981 12.5431 17.5953 12.7644 19.3634 10.4081C20.4402 8.97302 20.8707 8.09665 20.736 7.722C20.6078 7.36488 19.8158 7.45909 19.8158 7.45909L17.1823 7.47443C17.1823 7.47443 16.9873 7.44814 16.8416 7.53468C16.7003 7.62013 16.6094 7.81731 16.6094 7.81731C16.6094 7.81731 16.192 8.92811 15.6355 9.8724C14.4623 11.865 13.9923 11.9702 13.8006 11.8464C13.3548 11.5583 13.4665 10.6874 13.4665 10.0696C13.4665 8.13828 13.759 7.33311 12.8958 7.12498C12.6087 7.05596 12.3984 7.00995 11.6656 7.00228C10.7256 6.99242 9.92924 7.00557 9.47901 7.22576C9.17885 7.37255 8.94771 7.70009 9.08902 7.71872C9.2632 7.74172 9.65757 7.82498 9.8668 8.1098C10.1374 8.47678 10.1275 9.30276 10.1275 9.30276C10.1275 9.30276 10.2831 11.5758 9.76493 11.8585C9.4089 12.0524 8.92142 11.6569 7.87525 9.8483C7.33957 8.92263 6.93425 7.89837 6.93425 7.89837C6.93425 7.89837 6.85647 7.70776 6.71735 7.60588C6.54865 7.4821 6.31203 7.44266 6.31203 7.44266L3.8078 7.458C3.8078 7.458 3.43205 7.46895 3.29403 7.63218C3.17133 7.77787 3.28417 8.07803 3.28417 8.07803C3.28417 8.07803 5.24504 12.6647 7.46445 14.9773C9.50092 17.097 11.8123 16.9579 11.8123 16.9579H12.8596C12.8596 16.9579 13.1762 16.9228 13.3372 16.7486C13.4862 16.5887 13.4807 16.2885 13.4807 16.2885C13.4807 16.2885 13.4599 14.8831 14.1128 14.676C14.7559 14.4723 15.5818 16.0344 16.4571 16.6358C17.1188 17.0904 17.6216 16.9907 17.6216 16.9907L19.9626 16.9579C19.9626 16.9579 21.1873 16.8823 20.6067 15.9194Z" fill="#DBDBDB"/>
</svg>
