<svg width="24" height="22" viewBox="0 0 24 22" fill="none" xmlns="http://www.w3.org/2000/svg">
    <symbol id="like" viewBox="0 0 24 22">
        <path fill-rule="evenodd" clip-rule="evenodd" d="M20.9816 3.07593C19.0912 1.14726 16.0256 1.14726 14.1352 3.07593L12.5664 4.67537C12.416 4.82856 12.212 4.91414 12 4.91414C11.788 4.91414 11.584 4.82856 11.4344 4.67537L9.8648 3.07593C7.9744 1.14726 4.90881 1.14726 3.01842 3.07593C1.12722 5.00378 1.12722 8.13103 3.01842 10.0597C3.02562 10.067 3.03363 10.0752 3.04083 10.0825L12 19.9834L20.9592 10.0825C20.9664 10.0752 20.9744 10.067 20.9816 10.0597C22.8728 8.13103 22.8728 5.00378 20.9816 3.07593ZM13.0032 1.92378C15.5184 -0.64126 19.5976 -0.64126 22.1136 1.92378C24.6248 4.48474 24.6288 8.63378 22.1256 11.1988L12.588 21.7376C12.4368 21.9046 12.2232 22 12 22C11.7768 22 11.5632 21.9046 11.412 21.7376L1.87442 11.1988C-0.628776 8.63378 -0.624813 4.48474 1.88638 1.92378C4.40238 -0.64126 8.48158 -0.64126 10.9968 1.92378L12 2.94638L13.0032 1.92378Z"/>
    </symbol>
</svg>
